<svg viewBox="0 0 183.84 36.21" xmlns="http://www.w3.org/2000/svg"><rect fill="#3dae2b" height="36.21" rx="18.1" width="183.84"/><g fill="#fff"><text font-family="Arial-BoldMT, Arial" font-size="14.23" font-weight="700" letter-spacing=".05em" transform="translate(45.47 23.11)">CALL US NOW!</text><path d="m33.23 23.16-.23 1.19c0 .08 0 .16-.08.23a1.92 1.92 0 0 1 -.29.5c-.64.76-2.35 2.89-6.92.91-4.53-1.81-6.89-4.35-9.52-8.91-2.29-4.35-.11-6.7.93-7.5a1.49 1.49 0 0 1 .93-.29l1.21.06a.75.75 0 0 1 .66.49l1.36 3.79a1.06 1.06 0 0 1 -.19 1l-1.22 1.42a.49.49 0 0 0 -.08.52 11.64 11.64 0 0 0 2.66 3.65 10.83 10.83 0 0 0 3.55 2.37.64.64 0 0 0 .75-.14l1.3-1.45c.43-.47.59-.87 1.27-.48l3.6 1.89a.64.64 0 0 1 .31.75z"/></g></svg>